bicep_curl
version=1
nRows=101
nColumns=3
inDegrees=yes

# SIMM Motion File Header:
name bicep_curl
datacolumns 3
datarows 101
otherdata 1
range 0.0000 1.0000
endheader
time	/jointset/r_shoulder/r_shoulder_elev/value	/jointset/r_elbow/r_elbow_flex/value
0.0000	0.0000	70.0000
0.0100	0.0000	73.8977
0.0200	0.0000	77.7813
0.0300	0.0000	81.6369
0.0400	0.0000	85.4507
0.0500	0.0000	89.2088
0.0600	0.0000	92.8978
0.0700	0.0000	96.5044
0.0800	0.0000	100.0156
0.0900	0.0000	103.4188
0.1000	0.0000	106.7018
0.1100	0.0000	109.8526
0.1200	0.0000	112.8600
0.1300	0.0000	115.7132
0.1400	0.0000	118.4018
0.1500	0.0000	120.9162
0.1600	0.0000	123.2475
0.1700	0.0000	125.3870
0.1800	0.0000	127.3273
0.1900	0.0000	129.0612
0.2000	0.0000	130.5825
0.2100	0.0000	131.8859
0.2200	0.0000	132.9665
0.2300	0.0000	133.8205
0.2400	0.0000	134.4448
0.2500	0.0000	134.8372
0.2600	0.0000	134.9962
0.2700	0.0000	134.9213
0.2800	0.0000	134.6128
0.2900	0.0000	134.0717
0.3000	0.0000	133.3001
0.3100	0.0000	132.3006
0.3200	0.0000	131.0770
0.3300	0.0000	129.6335
0.3400	0.0000	127.9754
0.3500	0.0000	126.1086
0.3600	0.0000	124.0399
0.3700	0.0000	121.7768
0.3800	0.0000	119.3272
0.3900	0.0000	116.7002
0.4000	0.0000	113.9051
0.4100	0.0000	110.9520
0.4200	0.0000	107.8515
0.4300	0.0000	104.6148
0.4400	0.0000	101.2535
0.4500	0.0000	97.7797
0.4600	0.0000	94.2059
0.4700	0.0000	90.5451
0.4800	0.0000	86.8103
0.4900	0.0000	83.0149
0.5000	0.0000	79.1728
0.5100	0.0000	75.2976
0.5200	0.0000	71.4034
0.5300	0.0000	67.5041
0.5400	0.0000	63.6138
0.5500	0.0000	59.7465
0.5600	0.0000	55.9161
0.5700	0.0000	52.1364
0.5800	0.0000	48.4210
0.5900	0.0000	44.7832
0.6000	0.0000	41.2362
0.6100	0.0000	37.7927
0.6200	0.0000	34.4651
0.6300	0.0000	31.2654
0.6400	0.0000	28.2051
0.6500	0.0000	25.2952
0.6600	0.0000	22.5462
0.6700	0.0000	19.9680
0.6800	0.0000	17.5698
0.6900	0.0000	15.3604
0.7000	0.0000	13.3476
0.7100	0.0000	11.5386
0.7200	0.0000	9.9401
0.7300	0.0000	8.5577
0.7400	0.0000	7.3965
0.7500	0.0000	6.4605
0.7600	0.0000	5.7533
0.7700	0.0000	5.2772
0.7800	0.0000	5.0341
0.7900	0.0000	5.0248
0.8000	0.0000	5.2493
0.8100	0.0000	5.7069
0.8200	0.0000	6.3958
0.8300	0.0000	7.3137
0.8400	0.0000	8.4571
0.8500	0.0000	9.8220
0.8600	0.0000	11.4036
0.8700	0.0000	13.1960
0.8800	0.0000	15.1928
0.8900	0.0000	17.3869
0.9000	0.0000	19.7703
0.9100	0.0000	22.3345
0.9200	0.0000	25.0703
0.9300	0.0000	27.9677
0.9400	0.0000	31.0164
0.9500	0.0000	34.2054
0.9600	0.0000	37.5233
0.9700	0.0000	40.9580
0.9800	0.0000	44.4972
0.9900	0.0000	48.1283
1.0000	0.0000	51.8380
